<svg width="1280" height="640" viewBox="0 0 1280 640" fill="none" xmlns="http://www.w3.org/2000/svg">
  <defs>
    <linearGradient id="bg" x1="64" y1="32" x2="1184" y2="608" gradientUnits="userSpaceOnUse">
      <stop stop-color="#F7F2E8"/>
      <stop offset="0.45" stop-color="#EEF5F0"/>
      <stop offset="1" stop-color="#E8F1F5"/>
    </linearGradient>
    <linearGradient id="accentA" x1="150" y1="90" x2="1160" y2="520" gradientUnits="userSpaceOnUse">
      <stop stop-color="#D98A57" stop-opacity="0.28"/>
      <stop offset="1" stop-color="#1E7C72" stop-opacity="0.10"/>
    </linearGradient>
    <linearGradient id="accentB" x1="1000" y1="120" x2="300" y2="540" gradientUnits="userSpaceOnUse">
      <stop stop-color="#4B9AA6" stop-opacity="0.22"/>
      <stop offset="1" stop-color="#F2C38B" stop-opacity="0.16"/>
    </linearGradient>
    <filter id="blurA" x="-40" y="-40" width="1360" height="720" filterUnits="userSpaceOnUse" color-interpolation-filters="sRGB">
      <feGaussianBlur stdDeviation="20"/>
    </filter>
  </defs>

  <rect width="1280" height="640" rx="32" fill="url(#bg)"/>
  <g filter="url(#blurA)">
    <circle cx="240" cy="144" r="160" fill="url(#accentA)"/>
    <circle cx="1080" cy="168" r="150" fill="url(#accentB)"/>
    <circle cx="1060" cy="520" r="180" fill="url(#accentA)"/>
    <circle cx="180" cy="520" r="140" fill="url(#accentB)"/>
  </g>

  <rect x="84" y="84" width="1112" height="472" rx="28" fill="white" fill-opacity="0.72" stroke="#D9DED6"/>

  <g opacity="0.92">
    <path d="M185 355C232 298 303 268 379 273C449 278 512 313 561 368" stroke="#1E7C72" stroke-width="10" stroke-linecap="round"/>
    <path d="M182 391C229 334 300 304 376 309C446 314 510 349 559 404" stroke="#D98A57" stroke-width="10" stroke-linecap="round"/>
    <path d="M181 427C228 370 299 340 375 345C445 350 508 385 557 440" stroke="#4B9AA6" stroke-width="10" stroke-linecap="round"/>
    <circle cx="203" cy="355" r="14" fill="#1E7C72"/>
    <circle cx="203" cy="391" r="14" fill="#D98A57"/>
    <circle cx="203" cy="427" r="14" fill="#4B9AA6"/>
  </g>

  <g opacity="0.9">
    <rect x="735" y="196" width="328" height="180" rx="20" fill="#FCFBF8" stroke="#D8DDD6"/>
    <rect x="764" y="236" width="270" height="18" rx="9" fill="#D9E8E3"/>
    <rect x="764" y="274" width="194" height="18" rx="9" fill="#F0D8C3"/>
    <rect x="764" y="312" width="238" height="18" rx="9" fill="#D7E3EF"/>
  </g>

  <text x="176" y="176" fill="#1E7C72" font-family="Arial, Helvetica, sans-serif" font-size="28" letter-spacing="7">EDF BIOSIGNAL ANALYSIS</text>
  <text x="176" y="248" fill="#1A1A1A" font-family="Arial, Helvetica, sans-serif" font-size="74" font-weight="700">Bioedf</text>
  <text x="176" y="304" fill="#424242" font-family="Arial, Helvetica, sans-serif" font-size="28">EEG  ECG  EMG processing and visualization for EDF recordings</text>
  <text x="176" y="486" fill="#5A5A5A" font-family="Arial, Helvetica, sans-serif" font-size="26">Local analysis pipeline  •  Web frontend  •  Multi-modality workflow</text>
</svg>
